REM DIRINDEX 1\3,1\4,1\5,1\6,1\2\7,1\2\8,1\2\9,1\2\10,1\2\11
REM DIRNAME cjc021,folder01,folder02,folder03,folder04,folder05,folder06,folder07,folder08,folder09,folder10
TITLE ""
FILE "DISC5Track43.mp3" MP3
  TRACK 01 AUDIO
    TITLE "0:"
    INDEX 01 00:00:00
  TRACK 02 AUDIO
    TITLE "3:cjc021_5988"
    INDEX 01 00:00:23
  TRACK 03 AUDIO
    TITLE "0:"
    INDEX 01 00:01:34
  TRACK 04 AUDIO
    TITLE "4:cjc021_5989"
    INDEX 01 00:03:08
  TRACK 05 AUDIO
    TITLE "0:"
    INDEX 01 00:04:19
  TRACK 06 AUDIO
    TITLE "5:cjc021_5990"
    INDEX 01 00:04:54
  TRACK 07 AUDIO
    TITLE "0:"
    INDEX 01 00:07:43
  TRACK 08 AUDIO
    TITLE "3:cjc021_5991"
    INDEX 01 00:09:02
  TRACK 09 AUDIO
    TITLE "0:"
    INDEX 01 00:10:18
  TRACK 10 AUDIO
    TITLE "4:cjc021_5992"
    INDEX 01 00:11:66
  TRACK 11 AUDIO
    TITLE "0:"
    INDEX 01 00:13:04
  TRACK 12 AUDIO
    TITLE "5:cjc021_5993"
    INDEX 01 00:13:41
  TRACK 13 AUDIO
    TITLE "0:"
    INDEX 01 00:16:02
  TRACK 14 AUDIO
    TITLE "3:cjc021_5994"
    INDEX 01 00:17:37
  TRACK 15 AUDIO
    TITLE "0:"
    INDEX 01 00:18:37
  TRACK 16 AUDIO
    TITLE "4:cjc021_5995"
    INDEX 01 00:20:12
  TRACK 17 AUDIO
    TITLE "0:"
    INDEX 01 00:21:11
  TRACK 18 AUDIO
    TITLE "5:cjc021_5996"
    INDEX 01 00:21:47
  TRACK 19 AUDIO
    TITLE "0:"
    INDEX 01 00:24:02
  TRACK 20 AUDIO
    TITLE "3:cjc021_5997"
    INDEX 01 00:25:37
  TRACK 21 AUDIO
    TITLE "0:"
    INDEX 01 00:26:52
  TRACK 22 AUDIO
    TITLE "4:cjc021_5998"
    INDEX 01 00:28:25
  TRACK 23 AUDIO
    TITLE "0:"
    INDEX 01 00:29:40
  TRACK 24 AUDIO
    TITLE "5:cjc021_5999"
    INDEX 01 00:30:03
  TRACK 25 AUDIO
    TITLE "0:"
    INDEX 01 00:32:50
  TRACK 26 AUDIO
    TITLE "3:cjc021_6000"
    INDEX 01 00:34:10
  TRACK 27 AUDIO
    TITLE "0:"
    INDEX 01 00:35:04
  TRACK 28 AUDIO
    TITLE "4:cjc021_6001"
    INDEX 01 00:36:56
  TRACK 29 AUDIO
    TITLE "0:"
    INDEX 01 00:37:52
  TRACK 30 AUDIO
    TITLE "5:cjc021_6002"
    INDEX 01 00:38:12
  TRACK 31 AUDIO
    TITLE "0:"
    INDEX 01 00:41:04
  TRACK 32 AUDIO
    TITLE "3:cjc021_6003"
    INDEX 01 00:42:43
  TRACK 33 AUDIO
    TITLE "0:"
    INDEX 01 00:43:58
  TRACK 34 AUDIO
    TITLE "4:cjc021_6004"
    INDEX 01 00:45:35
  TRACK 35 AUDIO
    TITLE "0:"
    INDEX 01 00:46:49
  TRACK 36 AUDIO
    TITLE "5:cjc021_6005"
    INDEX 01 00:47:11
  TRACK 37 AUDIO
    TITLE "0:"
    INDEX 01 00:49:72
  TRACK 38 AUDIO
    TITLE "3:cjc021_6006"
    INDEX 01 00:51:32
  TRACK 39 AUDIO
    TITLE "0:"
    INDEX 01 00:52:55
  TRACK 40 AUDIO
    TITLE "4:cjc021_6007"
    INDEX 01 00:54:30
  TRACK 41 AUDIO
    TITLE "0:"
    INDEX 01 00:55:53
  TRACK 42 AUDIO
    TITLE "5:cjc021_6008"
    INDEX 01 00:56:14
  TRACK 43 AUDIO
    TITLE "0:"
    INDEX 01 00:58:56
  TRACK 44 AUDIO
    TITLE "3:cjc021_6009"
    INDEX 01 01:00:15
  TRACK 45 AUDIO
    TITLE "0:"
    INDEX 01 01:01:19
  TRACK 46 AUDIO
    TITLE "4:cjc021_6010"
    INDEX 01 01:02:69
  TRACK 47 AUDIO
    TITLE "0:"
    INDEX 01 01:04:00
  TRACK 48 AUDIO
    TITLE "5:cjc021_6011"
    INDEX 01 01:04:33
  TRACK 49 AUDIO
    TITLE "0:"
    INDEX 01 01:06:43
  TRACK 50 AUDIO
    TITLE "3:cjc021_6012"
    INDEX 01 01:08:03
  TRACK 51 AUDIO
    TITLE "0:"
    INDEX 01 01:09:16
  TRACK 52 AUDIO
    TITLE "4:cjc021_6013"
    INDEX 01 01:10:69
  TRACK 53 AUDIO
    TITLE "0:"
    INDEX 01 01:12:07
  TRACK 54 AUDIO
    TITLE "5:cjc021_6014"
    INDEX 01 01:12:42
  TRACK 55 AUDIO
    TITLE "0:"
    INDEX 01 01:15:01
  TRACK 56 AUDIO
    TITLE "3:cjc021_6015"
    INDEX 01 01:16:36
  TRACK 57 AUDIO
    TITLE "0:"
    INDEX 01 01:17:49
  TRACK 58 AUDIO
    TITLE "4:cjc021_6016"
    INDEX 01 01:19:25
  TRACK 59 AUDIO
    TITLE "0:"
    INDEX 01 01:20:40
  TRACK 60 AUDIO
    TITLE "5:cjc021_6017"
    INDEX 01 01:21:00
  TRACK 61 AUDIO
    TITLE "0:"
    INDEX 01 01:22:50
